<?xml version="1.0" encoding="UTF-8"?>
<svg width="300" height="100" xmlns="http://www.w3.org/2000/svg">
  <path d="M250.508 26.487c-9.296 0-17.265 4.349-21.949 11.137v-9.374h-19.012v71.487h19.844V65.414c0-9.374 5.015-14.556 13.477-14.556 7.962 0 12.478 4.849 12.478 13.39v35.489h19.677V59.232c0-17.082-10.795-32.745-24.515-32.745zm-62.183 36.822c0-21.098-14.81-36.822-36.092-36.822-21.45 0-36.426 15.724-36.426 36.822 0 21.098 14.977 36.822 36.426 36.822 21.282 0 36.092-15.724 36.092-36.822zm-18.68 0c0 11.637-6.847 19.431-17.412 19.431-10.566 0-17.413-7.794-17.413-19.431 0-11.637 6.847-19.431 17.413-19.431 10.565 0 17.412 7.794 17.412 19.431zm-77.493-55.92v91.348h19.844V7.389h-19.844zm-25.693 36.822v-9.374h-19.012v71.487h19.844V65.414c0-9.374 5.015-14.556 13.477-14.556 7.962 0 12.478 4.849 12.478 13.39v35.489h19.677V59.232c0-17.082-10.795-32.745-24.515-32.745-9.296 0-17.265 4.349-21.949 11.137v-9.374z" fill="#0668E1"/></svg> 